<?xml version="1.0" encoding="UTF-8"?>
<svg xmlns="http://www.w3.org/2000/svg" xmlns:xlink="http://www.w3.org/1999/xlink" width="150px" height="150px" viewBox="0 0 150 150" version="1.1">
<defs>
<linearGradient id="linear0" gradientUnits="userSpaceOnUse" x1="289.977" y1="260.809" x2="289.977" y2="280.809" gradientTransform="matrix(7.5,0,0,7.5,-2099.8275,-1956.0675)">
<stop offset="0" style="stop-color:rgb(30.980392%,43.921569%,61.176471%);stop-opacity:1;"/>
<stop offset="1" style="stop-color:rgb(17.647059%,25.098039%,34.509804%);stop-opacity:1;"/>
</linearGradient>
</defs>
<g id="surface1">
<path style=" stroke:none;fill-rule:nonzero;fill:url(#linear0);" d="M 90.375 101.625 L 85.125 96.375 C 83.625 94.875 81.847656 94.09375 79.785156 94.035156 C 77.777344 93.957031 75.832031 94.738281 74.4375 96.1875 C 72.9375 97.6875 72.1875 99.472656 72.1875 101.535156 C 72.1875 103.597656 72.9375 105.382812 74.4375 106.875 L 85.125 117.5625 C 86.625 119.0625 88.371094 119.8125 90.375 119.8125 C 92.378906 119.8125 94.125 119.0625 95.625 117.5625 L 122.4375 90.75 C 123.9375 89.25 124.65625 87.503906 124.597656 85.5 C 124.542969 83.507812 123.699219 81.617188 122.25 80.25 C 120.828125 78.90625 118.957031 78.140625 117 78.097656 C 115.023438 78.027344 113.109375 78.8125 111.75 80.25 Z M 45 97.5 L 52.5 97.5 C 54.503906 97.546875 56.4375 96.765625 57.847656 95.339844 C 59.273438 93.9375 60.054688 92 60 90 C 60.046875 87.996094 59.265625 86.0625 57.839844 84.652344 C 56.4375 83.226562 54.5 82.445312 52.5 82.5 L 45 82.5 C 42.996094 82.453125 41.0625 83.234375 39.652344 84.660156 C 38.226562 86.0625 37.445312 88 37.5 90 C 37.5 92.121094 38.21875 93.90625 39.660156 95.347656 C 41.0625 96.773438 43 97.554688 45 97.5 Z M 45 75 L 82.5 75 C 84.503906 75.046875 86.4375 74.265625 87.847656 72.839844 C 89.273438 71.4375 90.054688 69.5 90 67.5 C 90.046875 65.496094 89.265625 63.5625 87.839844 62.152344 C 86.4375 60.726562 84.5 59.945312 82.5 60 L 45 60 C 42.996094 59.953125 41.0625 60.734375 39.652344 62.160156 C 38.226562 63.5625 37.445312 65.5 37.5 67.5 C 37.5 69.621094 38.21875 71.40625 39.660156 72.847656 C 41.0625 74.273438 43 75.054688 45 75 Z M 45 52.5 L 82.5 52.5 C 84.503906 52.546875 86.4375 51.765625 87.847656 50.339844 C 89.273438 48.9375 90.054688 47 90 45 C 90.046875 42.996094 89.265625 41.0625 87.839844 39.652344 C 86.4375 38.226562 84.5 37.445312 82.5 37.5 L 45 37.5 C 42.996094 37.453125 41.0625 38.234375 39.652344 39.660156 C 38.226562 41.0625 37.445312 43 37.5 45 C 37.5 47.121094 38.21875 48.90625 39.660156 50.347656 C 41.0625 51.773438 43 52.554688 45 52.5 Z M 75 150 C 64.945312 150.0625 54.988281 148.050781 45.75 144.089844 C 36.863281 140.3125 28.78125 134.871094 21.9375 128.0625 C 15.1875 121.3125 9.847656 113.378906 5.910156 104.25 C 1.953125 95.007812 -0.0585938 85.050781 0 75 C -0.0625 64.945312 1.949219 54.988281 5.910156 45.75 C 9.6875 36.863281 15.128906 28.78125 21.9375 21.9375 C 28.6875 15.1875 36.621094 9.847656 45.75 5.910156 C 54.992188 1.953125 64.949219 -0.0585938 75 0 C 85.054688 -0.0625 95.011719 1.949219 104.25 5.910156 C 113.136719 9.6875 121.21875 15.128906 128.0625 21.9375 C 134.8125 28.6875 140.160156 36.621094 144.097656 45.75 C 148.058594 54.988281 150.070312 64.949219 150 75 C 150.0625 85.054688 148.050781 95.011719 144.089844 104.25 C 140.3125 113.136719 134.871094 121.21875 128.0625 128.0625 C 121.3125 134.8125 113.378906 140.160156 104.25 144.097656 C 95.011719 148.058594 85.050781 150.070312 75 150 Z M 75 150 "/>
</g>
</svg>
